<?xml version="1.0" encoding="UTF-8" standalone="no"?>
<svg
   enable-background="new 0 0 32 32"
   viewBox="0 0 64 64"
   version="1.1"
   id="svg2"
   width="64"
   height="64"
   xmlns="http://www.w3.org/2000/svg"
   xmlns:svg="http://www.w3.org/2000/svg">
  <defs
     id="defs2" />
  <path
     d="m -87.307359,-106.66313 a 0.48786116,0.48786116 59.438486 0 1 0.350809,0.5941 v 4.6661 c 0,0.32811 0.0073,0.86169 -0.03623,1.18665 -0.02366,0.17643 -0.05889,0.336193 -0.105718,0.479283 -0.10139,0.309847 -0.457204,0.737991 -0.756908,0.863734 -0.0859,0.03604 -0.178583,0.06555 -0.278063,0.08855 -0.318968,0.07374 -0.750584,0.06083 -0.949118,0.06083 a 0.41985185,0.41985185 140.55582 0 1 0.251632,-0.801114 c 0.675861,-0.173764 0.871645,-0.490486 0.907044,-0.812826 0.02843,-0.25888 0.02246,-0.737 0.02246,-1.06511 v -4.6661 a 0.59409601,0.59409601 135 0 1 0.594096,-0.5941 z m 0,-2.23902 a 0.48786116,0.48786116 59.438486 0 1 0.350809,0.5941 v 0.008 a 0.59409601,0.59409601 135 0 1 -0.594096,0.5941 0.48786116,0.48786116 59.438486 0 1 -0.350809,-0.5941 v -0.008 a 0.59409601,0.59409601 135 0 1 0.594096,-0.5941 z m 2.922015,2.23902 a 0.48786116,0.48786116 59.438486 0 1 0.350809,0.5941 l 0,4.56339 a 0.59409601,0.59409601 135 0 1 -0.594096,0.5941 0.48786116,0.48786116 59.438486 0 1 -0.350809,-0.5941 l 0,-4.56339 a 0.59409601,0.59409601 135 0 1 0.594096,-0.5941 z m 0,-2.23902 a 0.48786116,0.48786116 59.438486 0 1 0.350809,0.5941 v 0.008 a 0.59409601,0.59409601 135 0 1 -0.594096,0.5941 0.48786116,0.48786116 59.438486 0 1 -0.350809,-0.5941 v -0.008 a 0.59409601,0.59409601 135 0 1 0.594096,-0.5941 z m 5.239664,0.5941 a 0.44139891,0.44139891 162.12391 0 1 -0.594096,0.19161 c -0.171061,0 -0.600717,-0.0425 -0.887986,0.10957 -0.079,0.0418 -0.294103,0.32663 -0.31879,0.64777 -0.0079,0.10336 -0.0068,0.41519 -0.0068,0.69597 h 0.961915 a 0.59409601,0.59409601 45 0 1 0.594096,0.5941 0.43163715,0.43163715 166.71684 0 1 -0.594096,0.14025 h -0.367819 a 0.59409601,0.59409601 135 0 0 -0.594096,0.5941 v 3.82904 a 0.59409601,0.59409601 135 0 1 -0.594096,0.5941 0.48971736,0.48971736 59.07268 0 1 -0.355944,-0.5941 v -3.82904 a 0.59409601,0.59409601 45 0 0 -0.594096,-0.5941 0.47375113,0.47375113 62.465169 0 1 -0.309726,-0.5941 0.43163715,0.43163715 166.71684 0 1 0.594096,-0.14025 0.35803527,0.35803527 127.71236 0 0 0.309726,-0.40056 c 0.0726,-0.70075 0.10044,-0.8028 0.134866,-0.89711 0.111546,-0.30561 0.509048,-0.69608 0.815403,-0.80608 0.09922,-0.0356 0.206789,-0.0642 0.322704,-0.0858 0.322111,-0.0599 0.857145,-0.0495 1.185255,-0.0495 a 0.47043807,0.47043807 63.249466 0 1 0.299456,0.5941 z"
     id="text2"
     style="font-size:10.5172px;-inkscape-font-specification:'sans-serif, Normal';white-space:pre;stroke:#000000;stroke-width:0.592606"
     transform="matrix(1.8114291,0,0,1.5719768,185.36679,213.19165)"
     aria-label="jif" />
  <path
     d="M 55.137485,55.845247 46.525832,41.040081 C 46.248146,40.562683 45.961416,40.128685 45.992397,40.128685 L 38.291489,26.887963 A 3.7084009,3.7084009 74.90869 0 1 37.788731,25.023536 V 3.4441283 a 1,1 135 0 1 1,-1 h 1.350102 c 0.552285,0 1.612759,-0.081618 1.719201,-0.5810325 0.01787,-0.083838 -0.06543,-0.7671139 -0.564845,-0.87355625 -0.08384,-0.0178681 -0.602071,-0.0161875 -1.154356,-0.0161875 H 21.711381 c -0.552285,0 -1.612758,0.0816185 -1.719201,0.58103283 -0.01787,0.083838 0.06543,0.767114 0.564846,0.8735561 0.08384,0.017868 0.60207,0.016187 1.154355,0.016187 h 1.350103 a 1,1 45 0 1 1,1 V 25.023536 a 3.7078077,3.7078077 105.09361 0 1 -0.502827,1.864387 l -7.195969,12.370253 c -0.539597,0.923627 -0.539597,0.923627 -0.539597,0.923627 L 6.690234,55.884046 c -0.2776725,0.477406 -0.7151609,1.265 -0.8565391,1.797883 -0.2509646,0.945937 -0.2061933,1.939691 0.1282062,2.858666 0.1885212,0.518082 0.6651766,1.289198 1.044176,1.68959 0.6729249,0.71091 1.5420973,1.195776 2.5005469,1.394784 0.539805,0.112082 1.44079,0.101514 1.993075,0.101514 h 38.850817 c 0.552285,0 1.453286,0.01055 1.993054,-0.101701 0.95702,-0.199031 1.825419,-0.683402 2.497988,-1.392972 0.379269,-0.400134 0.856098,-1.171184 1.044226,-1.68941 0.336665,-0.927393 0.377734,-1.932707 0.11249,-2.900758 -0.145709,-0.531789 -0.583103,-1.318997 -0.860789,-1.796395 z M 25.53226,26.221682 v -4.392847 a 1,1 135 0 1 1,-1 h 3.392848 a 1,1 135 0 0 1,-1 0.78154686,0.78154686 25.209978 0 0 -1,-0.470777 H 26.53226 a 1,1 45 0 1 -1,-1 V 15.7006 a 1,1 135 0 1 1,-1 l 3.392848,0 a 1,1 135 0 0 1,-1 0.78154686,0.78154686 25.209978 0 0 -1,-0.470777 H 26.53226 a 1,1 45 0 1 -1,-1 V 9.5723639 a 1,1 135 0 1 1,-1 h 3.392848 a 1,1 135 0 0 1,-1 0.78154662,0.78154662 25.20994 0 0 -1,-0.4707762 l -3.392848,0 a 1,1 45 0 1 -1,-1 V 3.4441283 a 1,1 135 0 1 1,-1 h 8.785695 a 1,1 45 0 1 1,1 V 25.221682 c 0,0.552285 -0.0038,1.185442 0.100094,1.369737 l 7.173681,12.327737 a 0.57507523,0.57507523 119.90214 0 1 -0.497045,0.864312 H 18.757572 A 0.57515218,0.57515218 60.094546 0 1 18.260427,38.919097 L 24.929311,27.45579 c 0.277719,-0.477379 0.602948,-1.022556 0.602949,-1.234108 z m 28.025424,35.206306 c -0.354394,0.311391 -0.769931,0.542719 -1.221504,0.680087 -0.526454,0.160146 -1.433379,0.145589 -1.985664,0.145589 H 11.499699 c -0.552285,0 -1.459207,0.01454 -1.9856747,-0.145577 C 9.0620967,61.97064 8.646145,61.739115 8.2911734,61.427436 7.8776723,61.064366 7.3947098,60.283386 7.2532986,59.751565 7.1348638,59.306154 7.1099647,58.84452 7.178321,58.39676 7.2613338,57.852995 7.7036137,57.060092 7.9813321,56.582712 L 16.394722,42.120659 a 1.7386661,1.7386661 150.09449 0 1 1.502854,-0.864372 l 26.046891,0 a 1.7387869,1.7387869 29.903793 0 1 1.502905,0.864341 l 8.390818,14.42126 c 0.277747,0.477362 0.723255,1.267741 0.81632,1.810049 0.07995,0.465907 0.05876,0.941959 -0.06133,1.39895 -0.139853,0.532207 -0.622136,1.313894 -1.035501,1.677101 z"
     id="path1"
     style="display:inline;mix-blend-mode:normal;stroke:#000000;stroke-width:2.00022;stroke-dasharray:none;stroke-opacity:1;paint-order:normal"
     transform="matrix(0.95243487,0,0,0.92654063,2.5485269,2.0247357)" />
</svg>
